<?xml version="1.0" encoding="UTF-8"?>
<svg id="Camada_2" data-name="Camada 2" xmlns="http://www.w3.org/2000/svg" viewBox="0 0 267.19 41.61">
  <defs>
    <style>
      .cls-1 {
        fill: #fba31f;
      }
    </style>
  </defs>
  <g id="Camada_1-2" data-name="Camada 1">
    <g>
      <path class="cls-1" d="M22.55,1.12c19.12,0,24.52,3.6,24.52,16.25s-5.4,16.25-24.52,16.25h-1.57v6.86H0V1.12h22.55ZM20.97,11.98v10.8h.9c2.92,0,3.82-1.29,3.82-5.4s-.9-5.4-3.82-5.4h-.9Z"/>
      <path class="cls-1" d="M87.32,18.22c0,1.8-.22,4.27-.51,5.17h-19.51c.28,2.19,2.31,2.87,7.42,2.87,3.94,0,6.8-.39,10.63-1.35l.56,15.29c-4.16.9-8.83,1.41-14.06,1.41-17.21,0-24.29-5.51-24.29-18.78s6.47-18.33,21.03-18.33c12.82,0,18.72,4.33,18.72,13.72ZM67.13,19h4.72c-.06-3.6-.56-4.61-2.36-4.61s-2.31,1.01-2.36,4.61Z"/>
      <path class="cls-1" d="M107.96,5.62h6.92v13.61h-6.92v3.49c0,1.63.67,2.25,2.81,2.25,1.29,0,2.64-.22,4.11-.79v16.31c-3.54.84-5.62,1.12-8.88,1.12-12.26,0-16.81-3.99-16.81-14.56V1.12h18.78v4.5Z"/>
      <path class="cls-1" d="M154.6,1.63l-.67,17.6c-2.59-.67-6.35-1.12-9.62-1.12-4.05,0-5.62.67-5.62,2.7s1.58,2.7,5.62,2.7c3.32,0,7.03-.45,9.62-1.12l.67,17.6c-5,1.24-8.66,1.63-13.1,1.63-17.49,0-24.74-6.07-24.74-20.8S124.01,0,141.5,0c4.44,0,8.1.39,13.1,1.63Z"/>
      <path class="cls-1" d="M196.18,21.99v10.8c0,3.37.17,5.4.56,7.7h-17.71l-.73-3.15h-.11c-2.25,2.81-5.96,4.27-10.85,4.27-7.25,0-10.8-3.21-10.8-9.78s3.77-10.01,11.53-10.01c3.54,0,6.97.67,9.17,1.8h.11v-.11c0-2.87-2.53-4.16-8.15-4.16-4.5,0-8.77.84-11.13,2.25l-.56-15.69c4.84-.9,10.57-1.41,16.19-1.41,16.76,0,22.49,4.44,22.49,17.49ZM173.57,30.93c0,2.19.56,2.87,2.14,2.87.67,0,1.18-.11,1.63-.45v-4.84c-.45-.34-.96-.45-1.63-.45-1.57,0-2.14.67-2.14,2.87Z"/>
      <path class="cls-1" d="M226.77,4.78v17.21c-.96-.28-2.53-.34-3.21-.34-3.94,0-5.45,2.08-5.45,6.24v12.59h-18.89V5.62h16.19l.17,6.24h.11c.9-5.12,4.67-7.37,8.55-7.37.62,0,1.74.06,2.53.28Z"/>
      <path class="cls-1" d="M267.19,18.22c0,1.8-.22,4.27-.51,5.17h-19.51c.28,2.19,2.31,2.87,7.42,2.87,3.94,0,6.8-.39,10.63-1.35l.56,15.29c-4.16.9-8.83,1.41-14.06,1.41-17.21,0-24.29-5.51-24.29-18.78s6.47-18.33,21.03-18.33c12.82,0,18.72,4.33,18.72,13.72ZM247,19h4.72c-.06-3.6-.56-4.61-2.36-4.61s-2.31,1.01-2.36,4.61Z"/>
    </g>
  </g>
</svg>